<svg width="310" height="129" viewBox="0 0 310 129" fill="none" xmlns="http://www.w3.org/2000/svg">
<path d="M82.73 70.91C82.822 76.561 81.2765 82.1179 78.28 86.91C76.2883 90.2296 73.6211 93.0935 70.4512 95.3158C67.2814 97.5382 63.6798 99.0693 59.88 99.81C55.226 100.749 50.4876 101.204 45.74 101.17H0.630005V1H27.33C24.21 14.2867 21.1 27.5633 18 40.83C17.42 43.32 16.82 45.83 16.18 48.43L40.54 41.79C36 61.42 31.6 80.84 27.17 100.26L27.38 100.33L64 20.72L39.46 27.15C42.6 18.3 45.69 9.66 48.77 1H49C61.2 1.18 69.8467 4.73 74.94 11.65C78.0707 16.1265 79.683 21.4892 79.54 26.95C79.54 33.05 77.98 37.95 74.89 41.67C72.7578 44.0668 70.1668 46.0117 67.27 47.39C72.0005 48.9509 76.0686 52.0574 78.82 56.21C81.539 60.6196 82.8989 65.7323 82.73 70.91Z" fill="#15803D"/>
<path d="M98.1 1.00002H130.23C135.837 0.942602 141.365 2.31953 146.29 5.00002C151.127 7.59784 155.173 11.4535 158 16.16C160.861 20.8959 162.34 26.3376 162.27 31.87C162.305 37.5208 160.805 43.075 157.93 47.94C155.119 52.7893 151.102 56.8299 146.27 59.67C141.432 62.5478 135.899 64.0454 130.27 64H116.58V100.54H98.1V1.00002ZM130.23 47.49C132.113 47.5716 133.989 47.2085 135.705 46.4302C137.422 45.6519 138.931 44.4802 140.11 43.01C142.593 39.8325 143.875 35.8803 143.73 31.85C143.73 27.49 142.523 24.0067 140.11 21.4C137.697 18.7934 134.403 17.49 130.23 17.49H116.58V47.49H130.23Z" fill="#15803D"/>
<path d="M182 96.78C176.459 93.5614 171.854 88.953 168.64 83.41C165.379 77.8228 163.66 71.4694 163.66 65C163.66 58.5306 165.379 52.1773 168.64 46.59C171.854 41.047 176.459 36.4386 182 33.22C187.579 30.0095 193.903 28.3197 200.34 28.3197C206.777 28.3197 213.101 30.0095 218.68 33.22C224.228 36.4608 228.828 41.1021 232.019 46.6795C235.209 52.2569 236.879 58.5745 236.86 65V100.54H218.38V93C217.327 95.3733 215.05 97.41 211.55 99.11C208.053 100.816 204.21 101.692 200.32 101.67C193.884 101.722 187.554 100.032 182 96.78ZM213.42 78.29C216.715 74.6478 218.539 69.9115 218.539 65C218.539 60.0886 216.715 55.3522 213.42 51.71C211.759 49.9623 209.748 48.5843 207.518 47.6659C205.288 46.7476 202.89 46.3094 200.48 46.38C198.05 46.3182 195.634 46.7598 193.383 47.677C191.132 48.5943 189.095 49.9674 187.4 51.71C184.021 55.3103 182.14 60.0624 182.14 65C182.14 69.9376 184.021 74.6897 187.4 78.29C189.095 80.0326 191.132 81.4057 193.383 82.323C195.634 83.2402 198.05 83.6818 200.48 83.62C202.887 83.6878 205.281 83.2483 207.507 82.33C209.733 81.4117 211.741 80.0352 213.4 78.29H213.42Z" fill="#15803D"/>
<path d="M259.11 122.72C253.602 118.345 249.48 112.468 247.24 105.8H267.85C269.06 107.325 270.529 108.625 272.19 109.64C274.009 110.579 276.045 111.021 278.09 110.92C282.35 110.92 285.523 109.92 287.61 107.92C288.677 106.824 289.506 105.519 290.044 104.087C290.583 102.655 290.82 101.128 290.74 99.6V99.17C286.738 100.863 282.436 101.734 278.09 101.73C268.61 101.73 261.027 98.8166 255.34 92.99C249.653 87.1633 246.81 78.4666 246.81 66.9V29.46H265.29V66.85C265.29 72.63 266.31 76.87 268.35 79.57C270.39 82.27 273.637 83.62 278.09 83.62C282.543 83.62 285.79 82.27 287.83 79.57C289.87 76.87 290.887 72.63 290.88 66.85V29.46H309.37V97C309.442 102.686 308.043 108.294 305.31 113.28C302.708 118.061 298.849 122.041 294.15 124.79C289.278 127.624 283.726 129.076 278.09 128.99C271.233 129.131 264.534 126.918 259.11 122.72Z" fill="#15803D"/>
</svg>
