<svg width="18" height="18" viewBox="0 0 18 18" fill="none" xmlns="http://www.w3.org/2000/svg">
<path d="M4.5 15.01C4.5 15.74 4.72001 16.4 5.13 16.97C2.45 16.8 0 15.82 0 14.01V13.13C1.05 13.95 2.6 14.5 4.5 14.68V15.01ZM4.53998 10.94C4.52998 10.95 4.53003 10.96 4.53003 10.97C4.51003 11.07 4.5 11.17 4.5 11.27V13.18C2.08 12.9 0 11.94 0 10.27V9.39001C1.05 10.22 2.61003 10.77 4.53003 10.94H4.53998ZM8.44 7.28003C6.92 7.75003 5.73001 8.51998 5.07001 9.47998C2.41001 9.30998 0 8.33003 0 6.53003V5.84998C1.31 6.87998 3.41 7.47998 6 7.47998C6.87 7.47998 7.69 7.41003 8.44 7.28003ZM12 5.84998V6.53003C12 6.62003 11.99 6.70003 11.98 6.78003C11.19 6.78003 10.44 6.84997 9.73999 6.96997C10.64 6.69997 11.4 6.31998 12 5.84998ZM6 0C3 0 0 0.99999 0 2.98999C0 4.99999 3 5.97998 6 5.97998C9 5.97998 12 4.99999 12 2.98999C12 0.99999 9 0 6 0ZM12 15.76C9.49 15.76 7.35 15.1 6 14.03V15.01C6 17 9 18 12 18C15 18 18 17 18 15.01V14.03C16.65 15.1 14.51 15.76 12 15.76ZM12 8.28003C8.69 8.28003 6 9.62002 6 11.27C6 12.92 8.69 14.26 12 14.26C15.31 14.26 18 12.92 18 11.27C18 9.62002 15.31 8.28003 12 8.28003Z" fill="#166534"/>
</svg>
