<svg width="17" height="18" viewBox="0 0 17 18" fill="none" xmlns="http://www.w3.org/2000/svg">
<path d="M13.5 0H3.5C1.5 0 0.5 1 0.5 3V15C0.5 17 1.5 18 3.5 18H13.5C15.5 18 16.5 17 16.5 15V3C16.5 1 15.5 0 13.5 0ZM9.5 13.75H4.5C4.086 13.75 3.75 13.414 3.75 13C3.75 12.586 4.086 12.25 4.5 12.25H9.5C9.914 12.25 10.25 12.586 10.25 13C10.25 13.414 9.914 13.75 9.5 13.75ZM12.5 9.75H4.5C4.086 9.75 3.75 9.414 3.75 9C3.75 8.586 4.086 8.25 4.5 8.25H12.5C12.914 8.25 13.25 8.586 13.25 9C13.25 9.414 12.914 9.75 12.5 9.75ZM12.5 5.75H4.5C4.086 5.75 3.75 5.414 3.75 5C3.75 4.586 4.086 4.25 4.5 4.25H12.5C12.914 4.25 13.25 4.586 13.25 5C13.25 5.414 12.914 5.75 12.5 5.75Z" fill="#F9FAFB"/>
</svg>
