<svg width="19" height="20" viewBox="0 0 19 20" fill="none" xmlns="http://www.w3.org/2000/svg">
<path d="M14.5 19.75H4.5C2.082 19.75 0.75 18.418 0.75 16V4C0.75 1.582 2.082 0.25 4.5 0.25H14.5C16.918 0.25 18.25 1.582 18.25 4V16C18.25 18.418 16.918 19.75 14.5 19.75ZM4.5 1.75C2.923 1.75 2.25 2.423 2.25 4V16C2.25 17.577 2.923 18.25 4.5 18.25H14.5C16.077 18.25 16.75 17.577 16.75 16V4C16.75 2.423 16.077 1.75 14.5 1.75H4.5ZM14.25 10C14.25 9.586 13.914 9.25 13.5 9.25H5.5C5.086 9.25 4.75 9.586 4.75 10C4.75 10.414 5.086 10.75 5.5 10.75H13.5C13.914 10.75 14.25 10.414 14.25 10ZM11.25 14C11.25 13.586 10.914 13.25 10.5 13.25H5.5C5.086 13.25 4.75 13.586 4.75 14C4.75 14.414 5.086 14.75 5.5 14.75H10.5C10.914 14.75 11.25 14.414 11.25 14ZM14.25 6C14.25 5.586 13.914 5.25 13.5 5.25H5.5C5.086 5.25 4.75 5.586 4.75 6C4.75 6.414 5.086 6.75 5.5 6.75H13.5C13.914 6.75 14.25 6.414 14.25 6Z" fill="#F9FAFB"/>
</svg>
