<svg width="18" height="18" viewBox="0 0 18 18" fill="none" xmlns="http://www.w3.org/2000/svg">
<path fill-rule="evenodd" clip-rule="evenodd" d="M17.2699 6.06205L10.5879 0.569006C9.66494 -0.189994 8.33393 -0.189994 7.41093 0.569006L0.729904 6.06205C0.168904 6.52305 -0.0980941 7.251 0.0319059 7.965L1.48698 15.9471C1.70398 17.1351 2.73897 17.9991 3.94597 17.9991H14.0519C15.2599 17.9991 16.2949 17.1351 16.5109 15.9471L17.9659 7.96403C18.0979 7.25203 17.8309 6.52305 17.2699 6.06205ZM10.9999 14.75H6.99992C6.58592 14.75 6.24992 14.414 6.24992 14C6.24992 13.586 6.58592 13.25 6.99992 13.25H10.9999C11.4139 13.25 11.7499 13.586 11.7499 14C11.7499 14.414 11.4139 14.75 10.9999 14.75Z" fill="#F9FAFB"/>
</svg>
