<svg width="21" height="20" viewBox="0 0 21 20" fill="none" xmlns="http://www.w3.org/2000/svg">
<path d="M15.5532 19.75H5.44817C3.87717 19.75 2.53217 18.628 2.25017 17.083L0.795219 9.09994C0.617219 8.11894 0.984203 7.11599 1.7542 6.483L8.43621 0.989953C9.63321 0.00595313 11.3702 0.00595313 12.5672 0.989953L19.2492 6.483C20.0192 7.11599 20.3862 8.11894 20.2082 9.09994L18.7532 17.083C18.4692 18.628 17.1242 19.75 15.5532 19.75ZM10.5002 1.75094C10.1042 1.75094 9.71011 1.88291 9.38811 2.14791L2.70623 7.64095C2.35523 7.92895 2.18819 8.38502 2.27019 8.83102L3.72515 16.813C3.87615 17.645 4.6012 18.249 5.4472 18.249H15.5522C16.3982 18.249 17.1222 17.645 17.2742 16.813L18.7292 8.82992C18.8102 8.38392 18.6431 7.92895 18.2931 7.64095L11.6111 2.14791C11.2901 1.88391 10.8962 1.75094 10.5002 1.75094ZM18.0131 16.948H18.0231H18.0131ZM13.2502 15C13.2502 14.586 12.9142 14.25 12.5002 14.25H8.50017C8.08617 14.25 7.75017 14.586 7.75017 15C7.75017 15.414 8.08617 15.75 8.50017 15.75H12.5002C12.9142 15.75 13.2502 15.414 13.2502 15Z" fill="#F9FAFB"/>
</svg>
