<svg width="18" height="20" viewBox="0 0 18 20" fill="none" xmlns="http://www.w3.org/2000/svg">
<path d="M11.1641 17.751C11.2531 17.906 11.2521 18.098 11.1621 18.252C10.7061 19.033 9.89805 19.5 9.00005 19.5C8.10205 19.5 7.29405 19.033 6.83805 18.252C6.74805 18.098 6.74705 17.906 6.83605 17.751C6.92505 17.596 7.09005 17.5 7.27005 17.5H10.73C10.909 17.5 11.0741 17.596 11.1641 17.751ZM17.3911 15.688C17.3721 15.665 15.495 13.282 15.495 10.5V6.995C15.495 3.414 12.581 0.5 9.00005 0.5C5.41905 0.5 2.50505 3.414 2.50505 6.995V10.5C2.50505 13.281 0.629051 15.664 0.609051 15.688C0.489051 15.838 0.466054 16.044 0.549054 16.217C0.632054 16.39 0.807051 16.5 0.999051 16.5H16.999C17.191 16.5 17.3661 16.39 17.4491 16.217C17.5341 16.043 17.5101 15.838 17.3911 15.688Z" fill="#1F2937"/>
</svg>
