<svg width="17" height="20" viewBox="0 0 17 20" fill="none" xmlns="http://www.w3.org/2000/svg">
<path d="M8.50903 8.75C6.16503 8.75 4.25903 6.843 4.25903 4.5C4.25903 2.157 6.16503 0.25 8.50903 0.25C10.853 0.25 12.759 2.157 12.759 4.5C12.759 6.843 10.853 8.75 8.50903 8.75ZM8.50903 1.75C6.99203 1.75 5.75903 2.983 5.75903 4.5C5.75903 6.017 6.99203 7.25 8.50903 7.25C10.026 7.25 11.259 6.017 11.259 4.5C11.259 2.983 10.025 1.75 8.50903 1.75ZM12.4969 19.75H4.50305C2.08305 19.75 0.75 18.425 0.75 16.019C0.75 13.358 2.256 10.25 6.5 10.25H10.5C14.744 10.25 16.25 13.357 16.25 16.019C16.25 18.425 14.9169 19.75 12.4969 19.75ZM6.5 11.75C2.557 11.75 2.25 15.017 2.25 16.019C2.25 17.583 2.92405 18.25 4.50305 18.25H12.4969C14.0759 18.25 14.75 17.583 14.75 16.019C14.75 15.018 14.443 11.75 10.5 11.75H6.5Z" fill="#F9FAFB"/>
</svg>
