<svg width="21" height="20" viewBox="0 0 21 20" fill="none" xmlns="http://www.w3.org/2000/svg">
<path d="M20.2329 7.76887C19.6909 3.89387 16.6059 0.808775 12.7309 0.267775C12.2369 0.197775 11.734 0.348786 11.353 0.678786C10.969 1.01279 10.7489 1.49381 10.7489 2.00081V8.00886C10.7489 8.96886 11.53 9.75081 12.491 9.75081H18.4999C19.0059 9.75081 19.4879 9.53078 19.8209 9.14778C20.1519 8.76678 20.3019 8.26487 20.2329 7.76887ZM18.689 8.16182C18.661 8.19482 18.5979 8.24983 18.4999 8.24983H12.4919C12.3579 8.24983 12.2499 8.14189 12.2499 8.00789V1.99983C12.2499 1.90083 12.3049 1.83789 12.3379 1.80989C12.3649 1.78589 12.4179 1.74983 12.4919 1.74983C12.5019 1.74983 12.5129 1.75078 12.5229 1.75178C12.5239 1.75178 12.5239 1.75178 12.5239 1.75178C15.7379 2.20078 18.2969 4.76078 18.7469 7.97578C18.7599 8.06578 18.717 8.13082 18.689 8.16182ZM16.5439 10.6568H10.5929C10.1799 10.6568 9.84294 10.3208 9.84294 9.90681V3.95589C9.84294 3.44089 9.61395 2.95781 9.21495 2.63081C8.82395 2.31181 8.31895 2.18281 7.82695 2.28181C5.54495 2.73981 3.49594 4.12479 2.20494 6.07979C0.899943 8.05679 0.452909 10.4488 0.945909 12.8138C1.64091 16.1488 4.34892 18.8568 7.68492 19.5528C8.31292 19.6838 8.9429 19.7489 9.5659 19.7489C11.2909 19.7489 12.9659 19.2528 14.4189 18.2938C16.3739 17.0028 17.7589 14.9548 18.2169 12.6728C18.3159 12.1828 18.1899 11.6759 17.8689 11.2849C17.5419 10.8859 17.0589 10.6568 16.5439 10.6568ZM13.5929 17.0428C11.9519 18.1268 9.96093 18.4978 7.99193 18.0848C5.23093 17.5088 2.9899 15.2679 2.4149 12.5079C2.0039 10.5369 2.3739 8.54784 3.4569 6.90584C4.5289 5.28184 6.22893 4.13288 8.12193 3.75288C8.13393 3.75088 8.14392 3.74983 8.15392 3.74983C8.20192 3.74983 8.23893 3.77082 8.26293 3.79182C8.28693 3.81082 8.34191 3.86589 8.34191 3.95589V9.90681C8.34191 11.1478 9.35191 12.1568 10.5919 12.1568H16.543C16.633 12.1568 16.6879 12.2118 16.7069 12.2358C16.7309 12.2658 16.7579 12.3149 16.7449 12.3789C16.3659 14.2709 15.2169 15.9708 13.5929 17.0428Z" fill="#F9FAFB"/>
</svg>
