<svg width="19" height="20" viewBox="0 0 19 20" fill="none" xmlns="http://www.w3.org/2000/svg">
<path d="M18.4442 8.81914C18.2062 9.09314 17.8612 9.25017 17.5002 9.25017H11.4922C10.8072 9.25017 10.2502 8.69323 10.2502 8.00823V2.00017C10.2502 1.63817 10.4072 1.29423 10.6822 1.05523C10.9532 0.820227 11.3172 0.713136 11.6622 0.762136C15.3172 1.27314 18.2262 4.18219 18.7382 7.83819C18.7872 8.19019 18.6802 8.54814 18.4442 8.81914ZM16.4813 11.6032C16.2503 11.3202 15.9083 11.1572 15.5433 11.1572H9.59222C8.90322 11.1572 8.34222 10.5962 8.34222 9.90716V3.95623C8.34222 3.59223 8.18021 3.25012 7.89721 3.01812C7.62321 2.79412 7.26723 2.70512 6.92523 2.77312C4.77323 3.20612 2.83925 4.51113 1.62225 6.35613C0.391248 8.22113 -0.03074 10.4792 0.43426 12.7122C1.08926 15.8562 3.64223 18.4081 6.78723 19.0641C7.38023 19.1881 7.97527 19.2492 8.56427 19.2492C10.1923 19.2492 11.7733 18.7822 13.1423 17.8782C14.9873 16.6602 16.2922 14.7271 16.7252 12.5751C16.7962 12.2321 16.7073 11.8772 16.4813 11.6032Z" fill="#F9FAFB"/>
</svg>
